<svg xmlns="http://www.w3.org/2000/svg" viewBox="0 0 48 32" fill="none">
  <rect width="48" height="32" rx="4" fill="#000"/>
  <path d="M15 13c-1.1 0-2 .4-2.7 1.1l1.4 1.1c.3-.4.8-.6 1.3-.6 1 0 1.8.8 1.8 1.9 0 1-.8 1.8-1.8 1.8-.5 0-1-.2-1.3-.6l-1.4 1.1c.7.7 1.6 1.1 2.7 1.1 2 0 3.5-1.5 3.5-3.5S17 13 15 13Z" fill="#FFF200"/>
  <path d="M22 13.2v6.6h2V17h2v-1.7h-2v-1h2.5v-1.7H22v.6Z" fill="#FFF"/>
  <ellipse cx="30" cy="16.5" rx="3.5" ry="3.5" fill="none" stroke="#00A4E0" stroke-width="1.8"/>
</svg>
