<svg xmlns="http://www.w3.org/2000/svg" viewBox="0 0 48 32" fill="none">
  <rect width="48" height="32" rx="4" fill="#1A1F71"/>
  <path d="M19.5 21H17L18.9 11H21.4L19.5 21ZM15.3 11L12.9 18L12.6 16.5L11.7 12C11.7 12 11.6 11 10.3 11H6.1L6 11.2C6 11.2 7.5 11.5 9.2 12.5L11.4 21H14L18 11H15.3ZM35 21H37.3L35.3 11H33.3C32.2 11 31.9 11.8 31.9 11.8L28 21H30.5L31 19.5H34L34.3 21H35ZM31.8 17.5L33.1 13.8L33.8 17.5H31.8ZM28.5 13.5L28.8 11.8C28.8 11.8 27.5 11.3 26.1 11.3C24.6 11.3 21.3 12 21.3 14.8C21.3 17.4 25 17.4 25 18.8C25 20.1 21.7 19.8 20.5 18.9L20.1 20.7C20.1 20.7 21.5 21.3 23.3 21.3C25.1 21.3 28.5 20.2 28.5 17.6C28.5 14.9 24.8 14.6 24.8 13.5C24.8 12.4 27.3 12.5 28.5 13.5Z" fill="white"/>
</svg>
